<svg width="1728" height="1855" viewBox="0 0 1728 1855" fill="none" xmlns="http://www.w3.org/2000/svg">
<path d="M762.676 11.0879C829.225 -3.02956 897.999 -3.02984 964.549 11.0879C1042.86 27.7017 1114.71 70.22 1226.66 134.704L1990.14 574.471L1990.15 574.476L1990.44 574.649L1991.38 575.189L1991.41 575.2L1991.46 575.226L1994.66 577.073L2008.81 585.229C2078.77 625.546 2136.34 659.047 2179.71 689.622C2226.24 722.431 2268.2 759.659 2291 810.823C2308.38 849.823 2316.6 891.76 2315.65 933.516C2314.8 970.96 2306.59 1008.29 2291 1043.26C2268.2 1094.43 2226.24 1131.65 2179.71 1164.46C2167.89 1172.78 2113.7 1205.09 2038.31 1249.33C1962.6 1293.76 1864.84 1350.62 1765.25 1408.35C1566.06 1523.81 1359.49 1642.79 1307.27 1672.87L1301.22 1676.35C1245.03 1708.72 1180.49 1746.17 1120.46 1777.53C1060.74 1808.73 1004.29 1834.56 964.549 1842.99C898 1857.11 829.225 1857.11 762.676 1842.99C684.362 1826.37 612.511 1783.86 500.562 1719.37L-262.74 1279.71L-262.799 1279.68L-262.809 1279.67L-264.229 1278.84L-267.403 1277.02L-267.404 1277.02C-343.794 1233.02 -406.22 1197.07 -452.484 1164.46C-499.02 1131.65 -540.971 1094.43 -563.776 1043.26C-579.363 1008.29 -587.577 970.96 -588.427 933.516C-589.373 891.76 -581.158 849.824 -563.776 810.823C-540.972 759.659 -499.021 722.432 -452.484 689.622C-406.265 657.036 -343.913 621.13 -267.627 577.189L-264.221 575.226L-235.017 558.399C-148.801 508.734 58.0161 389.766 261.376 275.448C377.573 210.129 492.697 146.296 583.57 97.7686C628.998 73.5096 668.447 53.0284 698.967 38.0938C714.218 30.6305 727.33 24.5084 737.889 19.9775C748.21 15.5488 756.793 12.3358 762.676 11.0879Z" stroke="#FCFCFD"/>
<path d="M776.699 260.309C834.243 248.102 893.71 248.102 951.254 260.309C1018.97 274.675 1081.1 311.441 1177.88 367.188L1837.94 747.383L1837.94 747.388L1838.19 747.533L1839 748.001L1839.03 748.01L1839.08 748.035L1841.84 749.633C1907.87 787.666 1961.84 818.741 2001.83 846.939C2042.07 875.306 2078.35 907.5 2098.07 951.75C2113.1 985.476 2120.21 1021.74 2119.39 1057.85C2118.65 1090.23 2111.55 1122.52 2098.07 1152.76C2078.35 1197.01 2042.07 1229.2 2001.83 1257.56C1991.62 1264.76 1944.76 1292.69 1879.58 1330.94C1814.13 1369.35 1729.61 1418.51 1643.51 1468.42C1471.31 1568.24 1292.72 1671.1 1247.57 1697.11L1242.34 1700.12C1193.76 1728.1 1137.96 1760.48 1086.06 1787.59C1034.43 1814.57 985.621 1836.9 951.254 1844.19C893.71 1856.4 834.243 1856.4 776.699 1844.19H776.698C708.98 1829.83 646.852 1793.06 550.07 1737.31L-109.834 1357.21L-109.894 1357.18L-109.904 1357.16L-111.121 1356.46L-113.865 1354.89H-113.866C-179.907 1316.85 -233.879 1285.76 -273.88 1257.56C-314.115 1229.2 -350.397 1197.01 -370.12 1152.76C-383.599 1122.52 -390.702 1090.23 -391.437 1057.85C-392.255 1021.74 -385.151 985.477 -370.12 951.75C-350.397 907.499 -314.116 875.306 -273.88 846.939C-233.918 818.765 -180.009 787.72 -114.059 749.733L-111.114 748.035C-62.4773 720.02 142.357 601.818 343.286 488.866C443.743 432.395 543.273 377.209 621.837 335.254C661.111 314.281 695.217 296.573 721.604 283.661C734.789 277.209 746.126 271.916 755.256 267.998C764.178 264.17 771.605 261.389 776.698 260.309H776.699Z" stroke="#EBECFE"/>
<path d="M795.821 437.112C840.526 427.629 886.724 427.629 931.429 437.112C984.04 448.274 1032.31 476.838 1107.46 520.128L1620.07 815.391L1620.07 815.396L1620.26 815.507L1620.89 815.865L1620.91 815.873L1620.95 815.897L1623.1 817.138C1674.38 846.673 1716.29 870.81 1747.36 892.712C1778.61 914.745 1806.81 939.762 1822.14 974.155C1833.82 1000.36 1839.34 1028.54 1838.7 1056.6C1838.13 1081.76 1832.61 1106.85 1822.14 1130.35C1806.81 1164.74 1778.61 1189.76 1747.36 1211.79C1739.42 1217.39 1703.02 1239.08 1652.41 1268.78C1601.58 1298.61 1535.94 1336.79 1469.08 1375.55C1335.34 1453.07 1196.65 1532.95 1161.58 1553.15L1157.52 1555.49C1119.79 1577.22 1076.46 1602.36 1036.15 1623.42C996.055 1644.37 958.135 1661.72 931.429 1667.39C886.725 1676.87 840.525 1676.87 795.821 1667.39C743.209 1656.23 694.942 1627.66 619.787 1584.37L107.3 1289.18L107.242 1289.15L107.235 1289.14L106.301 1288.6L104.17 1287.38L104.169 1287.38C52.8827 1257.83 10.9617 1233.69 -20.1084 1211.79C-51.3598 1189.76 -79.5559 1164.74 -94.8857 1130.35C-105.359 1106.85 -110.88 1081.76 -111.451 1056.6C-112.087 1028.54 -106.566 1000.36 -94.8857 974.155C-79.5562 939.762 -51.3608 914.746 -20.1084 892.712C10.9314 870.828 52.8031 846.716 104.02 817.216L106.306 815.897C144.077 794.14 303.153 702.343 459.197 614.624C537.213 570.768 614.51 527.909 675.524 495.326C706.025 479.038 732.514 465.286 753.008 455.258C763.249 450.246 772.056 446.134 779.148 443.091C786.078 440.117 791.854 437.954 795.821 437.112Z" stroke="#C9CCFF"/>
<path d="M810.132 564.085C845.648 556.555 882.352 556.555 917.868 564.085C959.669 572.948 998.017 595.631 1057.7 629.988L1464.78 864.347L1464.79 864.352L1464.93 864.438L1465.42 864.718L1465.44 864.724L1465.48 864.749L1467.19 865.733L1482.11 874.328C1516.1 893.938 1544.29 910.509 1565.88 925.724C1590.7 943.215 1613.11 963.085 1625.3 990.41C1634.58 1011.23 1638.97 1033.61 1638.46 1055.89C1638.01 1075.88 1633.62 1095.81 1625.3 1114.47C1613.11 1141.79 1590.7 1161.66 1565.88 1179.15C1559.57 1183.6 1530.66 1200.82 1490.47 1224.39C1450.1 1248.07 1397.97 1278.37 1344.87 1309.14C1238.66 1370.67 1128.52 1434.07 1100.67 1450.1L1100.67 1450.11L1097.45 1451.96L1097.45 1451.96C1067.49 1469.21 1033.07 1489.17 1001.06 1505.88C969.218 1522.51 939.093 1536.29 917.868 1540.79C882.352 1548.32 845.648 1548.32 810.132 1540.79C768.331 1531.93 729.983 1509.24 670.305 1474.89L263.312 1240.58L263.255 1240.55L263.249 1240.55L262.519 1240.12L260.826 1239.15H260.825C220.098 1215.71 186.802 1196.54 162.123 1179.15C137.3 1161.66 114.889 1141.8 102.703 1114.47C94.3798 1095.81 89.9927 1075.88 89.5391 1055.89C89.0336 1033.61 93.4211 1011.23 102.703 990.41C114.889 963.085 137.299 943.216 162.123 925.724C186.778 908.351 220.034 889.209 260.706 865.795L262.522 864.749C292.519 847.48 418.85 774.618 542.773 704.992C604.73 670.182 666.116 636.163 714.571 610.301C738.794 597.372 759.832 586.456 776.108 578.495C784.242 574.517 791.237 571.253 796.872 568.836C802.375 566.476 806.971 564.755 810.132 564.085Z" stroke="#B6BDFF"/>
<path d="M823.584 687.904C850.066 682.282 877.434 682.282 903.916 687.904C935.089 694.523 963.684 711.462 1008.15 737.096L1311.49 911.975L1311.5 911.979L1311.61 912.048L1311.96 912.245L1311.97 912.249L1312.01 912.274L1313.28 913.009L1324.4 919.422C1349.73 934.054 1370.74 946.424 1386.83 957.78C1405.33 970.836 1422.06 985.679 1431.15 1006.1C1438.07 1021.65 1441.35 1038.37 1440.97 1055.02C1440.63 1069.95 1437.36 1084.84 1431.15 1098.78C1422.06 1119.2 1405.33 1134.04 1386.83 1147.09C1382.12 1150.42 1360.58 1163.27 1330.63 1180.86C1300.55 1198.53 1261.71 1221.14 1222.14 1244.1C1143 1290.01 1060.92 1337.33 1040.17 1349.29L1037.77 1350.67C1015.44 1363.54 989.798 1378.44 965.938 1390.91C942.214 1403.32 919.751 1413.61 903.916 1416.97C877.434 1422.59 850.066 1422.59 823.584 1416.97C792.411 1410.35 763.816 1393.41 719.354 1367.78L416.08 1192.94L416.024 1192.91L416.019 1192.91L415.489 1192.6L414.229 1191.88L414.228 1191.87C383.881 1174.38 359.065 1160.08 340.669 1147.09C322.167 1134.04 305.444 1119.2 296.35 1098.78C290.141 1084.84 286.868 1069.95 286.529 1055.02C286.152 1038.37 289.424 1021.65 296.349 1006.1H296.35C305.444 985.679 322.166 970.837 340.669 957.78C359.047 944.812 383.834 930.525 414.139 913.055L415.492 912.274C437.844 899.388 531.981 845.017 624.323 793.062C670.491 767.087 716.235 741.702 752.343 722.403C770.393 712.756 786.071 704.609 798.201 698.668C804.263 695.699 809.477 693.262 813.679 691.457C817.779 689.696 821.215 688.407 823.584 687.904Z" stroke="#A2AEFF"/>
<path d="M832.706 772.24C853.092 767.92 874.158 767.92 894.544 772.24C918.543 777.327 940.556 790.345 974.749 810.023L1208.07 944.299L1208.08 944.303L1208.16 944.352L1208.42 944.5L1208.43 944.504L1208.48 944.529L1209.46 945.093C1232.79 958.522 1251.88 969.505 1266.04 979.475C1280.27 989.503 1293.16 1000.91 1300.16 1016.62C1305.5 1028.58 1308.02 1041.44 1307.73 1054.24C1307.47 1065.71 1304.95 1077.16 1300.16 1087.88C1293.16 1103.59 1280.27 1115 1266.04 1125.03C1262.41 1127.58 1245.83 1137.45 1222.8 1150.96C1199.66 1164.52 1169.78 1181.88 1139.35 1199.51C1078.47 1234.76 1015.34 1271.09 999.383 1280.28L997.534 1281.34C980.363 1291.22 960.634 1302.66 942.279 1312.24C924.032 1321.77 906.741 1329.67 894.544 1332.26C874.159 1336.58 853.091 1336.58 832.706 1332.26C808.707 1327.17 786.694 1314.15 752.5 1294.48L519.229 1160.23L519.171 1160.2L519.164 1160.19L518.774 1159.97L517.805 1159.41H517.804C494.464 1145.98 475.37 1135 461.215 1125.03C446.978 1115 434.094 1103.59 427.086 1087.88C422.304 1077.16 419.783 1065.71 419.522 1054.24C419.232 1041.44 421.753 1028.58 427.086 1016.62C434.094 1000.91 446.978 989.503 461.215 979.475C475.356 969.514 494.427 958.542 517.735 945.129L518.776 944.529L541.14 931.662C572.087 913.877 626.135 882.914 679.406 852.995C714.918 833.051 750.103 813.559 777.878 798.74C791.762 791.332 803.823 785.076 813.155 780.514C817.819 778.234 821.831 776.362 825.065 774.976C828.22 773.623 830.871 772.629 832.706 772.24Z" stroke="#7491FF"/>
<path d="M840.416 841.936C855.718 838.689 871.532 838.689 886.834 841.936C904.852 845.759 921.377 855.544 947.008 870.312L1121.95 971.106L1121.96 971.111L1122.02 971.146L1122.2 971.251L1122.21 971.255L1122.25 971.28L1122.99 971.703L1129.4 975.399C1144 983.833 1156.13 990.967 1165.42 997.519C1176.1 1005.05 1185.78 1013.63 1191.05 1025.46C1195.06 1034.45 1196.95 1044.12 1196.73 1053.74C1196.54 1062.38 1194.64 1070.98 1191.05 1079.05C1185.78 1090.87 1176.1 1099.45 1165.42 1106.98C1162.7 1108.9 1150.26 1116.32 1132.99 1126.45C1115.64 1136.64 1093.24 1149.67 1070.42 1162.9C1024.78 1189.36 977.445 1216.64 965.478 1223.53L964.092 1224.33C951.218 1231.75 936.422 1240.33 922.657 1247.53C908.977 1254.68 895.998 1260.62 886.834 1262.56C871.532 1265.81 855.718 1265.81 840.416 1262.56C822.398 1258.74 805.873 1248.96 780.242 1234.19L605.338 1133.42L605.28 1133.38L605.275 1133.38L604.998 1133.22L604.271 1132.8L604.27 1132.8C586.771 1122.72 572.449 1114.47 561.83 1106.98C551.15 1099.45 541.467 1090.87 536.198 1079.05C532.606 1070.98 530.712 1062.38 530.517 1053.74C530.298 1044.12 532.192 1034.45 536.198 1025.46C541.467 1013.63 551.15 1005.05 561.83 997.519C572.439 990.037 586.744 981.797 604.219 971.729L604.999 971.28C617.89 963.853 672.181 932.515 725.438 902.568C752.065 887.597 778.448 872.964 799.274 861.84C809.685 856.279 818.729 851.582 825.729 848.156C829.226 846.444 832.236 845.037 834.664 843.995C837.029 842.98 839.027 842.23 840.416 841.936Z" stroke="#2575FF"/>
</svg>
