<svg preserveAspectRatio="none" width="100%" height="100%" overflow="visible" style="display: block;" viewBox="0 0 87 87" fill="none" xmlns="http://www.w3.org/2000/svg">
<g id="logo_Binom" filter="url(#filter0_dd_0_34)">
<rect x="6" y="6" width="75" height="75" rx="37.5" fill="var(--fill-0, #FCFCFD)"/>
<path id="Vector" d="M53.375 51.1465H47.75V68C53.7154 67.0505 59.1057 63.8728 62.8455 59.101C66.5852 54.3292 68.3994 48.3141 67.9261 42.2559C67.4528 36.1976 64.7268 30.5417 60.292 26.4164C55.8572 22.2912 50.0396 20 44 20C37.9604 20 32.1428 22.2912 27.708 26.4164C23.2732 30.5417 20.5472 36.1976 20.0739 42.2559C19.6006 48.3141 21.4148 54.3292 25.1545 59.101C28.8943 63.8728 34.2846 67.0505 40.25 68V51.1465H34.125V44.1032H40.25V38.4435C40.5833 30.981 45.4167 28.1301 54.75 29.891V35.8023H51.5C49.0833 35.8861 47.8333 37.1438 47.75 39.5754V44.1032H54.4375" fill="var(--fill-0, #1877F2)"/>
</g>
<defs>
<filter id="filter0_dd_0_34" x="0" y="0" width="87" height="87" filterUnits="userSpaceOnUse" color-interpolation-filters="sRGB">
<feFlood flood-opacity="0" result="BackgroundImageFix"/>
<feColorMatrix in="SourceAlpha" type="matrix" values="0 0 0 0 0 0 0 0 0 0 0 0 0 0 0 0 0 0 127 0" result="hardAlpha"/>
<feOffset dx="-2"/>
<feGaussianBlur stdDeviation="2"/>
<feColorMatrix type="matrix" values="0 0 0 0 0.113725 0 0 0 0 0.160784 0 0 0 0 0.223529 0 0 0 0.08 0"/>
<feBlend mode="normal" in2="BackgroundImageFix" result="effect1_dropShadow_0_34"/>
<feColorMatrix in="SourceAlpha" type="matrix" values="0 0 0 0 0 0 0 0 0 0 0 0 0 0 0 0 0 0 127 0" result="hardAlpha"/>
<feOffset/>
<feGaussianBlur stdDeviation="3"/>
<feColorMatrix type="matrix" values="0 0 0 0 0.0627451 0 0 0 0 0.0941176 0 0 0 0 0.156863 0 0 0 0.02 0"/>
<feBlend mode="normal" in2="effect1_dropShadow_0_34" result="effect2_dropShadow_0_34"/>
<feBlend mode="normal" in="SourceGraphic" in2="effect2_dropShadow_0_34" result="shape"/>
</filter>
</defs>
</svg>
