<svg preserveAspectRatio="none" width="100%" height="100%" overflow="visible" style="display: block;" viewBox="0 0 1194.41 1092.67" fill="none" xmlns="http://www.w3.org/2000/svg">
<g id="shape">
<path fill-rule="evenodd" clip-rule="evenodd" d="M237.031 671.37C265.719 677.448 295.364 677.448 324.052 671.37C356.786 664.436 386.398 647.354 420.048 627.943L420.049 627.943C420.956 627.42 427.216 623.801 434.644 619.508C446.206 612.825 460.597 604.506 462.033 603.681L392.175 563.379L377.834 571.627C346.398 589.601 328.462 599.055 309.549 603.062L305.956 603.774C287.956 607.098 269.465 606.861 251.534 603.062C229.919 598.483 209.581 586.788 168.908 563.393L70.7073 506.908C69.8822 507.384 60.9764 512.528 49.7435 519.016C31.0026 529.84 5.78416 544.406 0.80829 547.277L134.023 623.902C136.38 625.259 138.717 626.606 141.033 627.942C174.684 647.354 204.297 664.436 237.031 671.37Z" fill="var(--fill-0, #2575FF)"/>
<path d="M956.84 671.37C928.153 677.448 898.507 677.448 869.82 671.37C837.086 664.436 807.473 647.354 773.822 627.942C771.505 626.606 769.169 625.259 766.811 623.902L413.233 420.524L410.59 419.004C385.217 404.413 362.164 391.155 344.568 378.767C326.67 366.166 304.669 348.032 292.185 320.061C276.034 283.871 276.034 242.532 292.185 206.343C304.668 178.371 326.669 160.237 344.568 147.636C362.192 135.228 385.289 121.945 410.709 107.326L413.233 105.875L483.091 146.176L448.118 166.384C392.901 198.144 365.291 214.027 356.033 234.773L355.303 236.474C347.968 254.154 348.21 274.1 356.033 291.63C365.29 312.373 392.895 328.251 448.098 360.003L801.697 563.393C842.37 586.788 862.707 598.483 884.322 603.062C902.253 606.861 920.744 607.098 938.745 603.774L942.338 603.062C961.251 599.055 979.187 589.601 1010.62 571.627L1024.96 563.379L1094.82 603.681C1092.46 605.037 1055.15 626.606 1052.84 627.943C1019.19 647.354 989.575 664.436 956.84 671.37Z" fill="var(--fill-0, #2575FF)"/>
<path d="M413.233 105.875L483.091 146.176L596.629 80.6092L526.667 40.3678L413.233 105.875Z" fill="var(--fill-0, #2575FF)"/>
<path d="M901.687 206.342C889.203 178.371 867.202 160.237 849.303 147.636C831.68 135.228 808.583 121.946 783.164 107.327L780.638 105.874L666.531 40.2414L596.629 80.6092L745.753 166.384L765.184 177.592C807.585 202.192 829.738 216.621 837.839 234.773L838.568 236.474C845.903 254.154 845.662 274.1 837.839 291.63L836.913 293.561C826.824 313.383 764.271 349.455 710.781 380.222L780.638 420.524L783.282 419.004C808.655 404.413 831.707 391.155 849.303 378.767C867.202 366.166 889.203 348.032 901.687 320.06C917.837 283.871 917.837 242.532 901.687 206.342Z" fill="var(--fill-0, #2575FF)"/>
<path d="M666.531 40.2414L596.569 0L526.885 40.2414L526.667 40.3678L596.629 80.6092L666.531 40.2414Z" fill="var(--fill-0, #2575FF)"/>
<path d="M780.638 986.791L710.781 946.489L597.241 1012.06L667.203 1052.3L780.638 986.791Z" fill="var(--fill-0, #2575FF)"/>
<path fill-rule="evenodd" clip-rule="evenodd" d="M527.339 1052.42L597.301 1092.67L667.203 1052.3L597.241 1012.06L448.098 926.27C392.895 894.518 365.29 878.64 356.033 857.897C348.21 840.367 347.968 820.421 355.303 802.74L356.033 801.04C365.291 780.294 392.901 764.411 448.118 732.651L483.091 712.443L413.233 672.141L410.709 673.593L410.705 673.595C385.286 688.214 362.191 701.496 344.568 713.903C326.669 726.504 304.668 744.637 292.185 772.609C276.034 808.799 276.034 850.138 292.185 886.327C304.669 914.299 326.67 932.433 344.568 945.034C362.164 957.422 385.217 970.68 410.59 985.271L413.233 986.791L527.339 1052.42Z" fill="var(--fill-0, #2575FF)"/>
<path d="M324.052 421.299C295.364 415.222 265.719 415.222 237.031 421.299C204.297 428.234 174.684 445.316 141.033 464.728C140.363 465.114 136.768 467.191 131.937 469.981L128.05 472.227C116.26 479.038 100.553 488.11 99.0504 488.975L168.908 529.277C208.311 506.612 228.628 494.927 249.512 490.055L251.534 489.604C270.66 485.552 290.424 485.552 309.549 489.604C331.161 494.182 351.495 505.878 392.156 529.266L392.175 529.277L745.753 732.651L765.184 743.859C807.585 768.459 829.738 782.887 837.839 801.04L838.568 802.74C845.903 820.421 845.662 840.367 837.839 857.897L836.913 859.827C833.704 866.132 825.187 874.082 813.342 882.981C811.222 884.574 808.996 886.197 806.674 887.846C781.184 905.958 744.212 927.26 710.781 946.489L780.638 986.791L783.282 985.271L783.748 985.003C794.072 979.066 804.007 973.35 813.342 967.823C826.784 959.865 838.982 952.3 849.303 945.034C867.202 932.433 889.203 914.299 901.687 886.327C917.837 850.138 917.837 808.798 901.687 772.609C889.203 744.637 867.202 726.504 849.303 713.903C831.68 701.495 808.583 688.212 783.164 673.594L780.638 672.141L427.06 468.768C424.745 467.436 422.451 466.113 420.176 464.8L420.108 464.761L420.05 464.728C386.399 445.316 356.786 428.234 324.052 421.299Z" fill="var(--fill-0, #2575FF)"/>
<path fill-rule="evenodd" clip-rule="evenodd" d="M869.82 421.299C898.508 415.222 928.152 415.222 956.84 421.299C989.575 428.234 1019.19 445.316 1052.84 464.728L1052.9 464.761L1052.96 464.8C1054.12 465.469 1055.29 466.14 1056.46 466.814C1057.58 467.463 1058.71 468.114 1059.85 468.768L1124.45 505.926L1194.41 546.167L1124.51 586.535L1054.55 546.294L1024.96 529.277L1024.94 529.266C984.283 505.878 963.95 494.182 942.338 489.604C923.212 485.552 903.448 485.552 884.322 489.604L882.3 490.055C861.417 494.927 841.1 506.612 801.697 529.277L731.839 488.975C733.342 488.11 749.056 479.033 760.848 472.221C767.548 468.351 772.982 465.212 773.822 464.728C807.473 445.316 837.085 428.234 869.82 421.299Z" fill="var(--fill-0, #2575FF)"/>
</g>
</svg>
