<svg width="172" height="157" viewBox="0 0 172 157" fill="none" xmlns="http://www.w3.org/2000/svg">
<path d="M60.8363 90.5981C60.717 90.7949 60.5959 90.9901 60.4731 91.1834C57.4146 96.0003 53.296 99.7557 48.6076 102.33C47.0805 103.168 45.4928 103.881 43.8616 104.465C41.0267 105.479 38.0602 106.102 35.0513 106.312C28.5296 106.767 21.8083 105.281 15.7932 101.634C12.3458 99.543 9.42102 96.9184 7.0606 93.9302C-1.18197 83.4958 -2.54258 68.6288 4.75777 56.5905C6.61928 53.5209 8.90419 50.8656 11.4921 48.6541C20.4919 40.9635 33.1563 38.6406 44.4221 42.9257C46.2596 43.6246 48.0598 44.4992 49.8008 45.5551C53.1158 47.5654 55.9476 50.0694 58.259 52.9157C60.4726 55.6416 62.209 58.6814 63.4355 61.9018C65.487 67.2888 66.1117 73.1812 65.1568 78.9558C64.4942 82.9628 63.0711 86.913 60.8363 90.5981Z" fill="url(#paint0_linear_3073_26789)"/>
<path d="M47.6491 113.565C46.1552 111.483 45.0048 109.101 44.3023 106.479C44.1225 105.808 43.9759 105.136 43.8616 104.465C41.0267 105.479 38.0602 106.102 35.0513 106.312C35.3626 107.096 35.6319 107.907 35.8557 108.742C36.3786 110.694 36.6202 112.655 36.6053 114.582C40.1085 113.314 43.9161 112.945 47.6491 113.565Z" fill="url(#paint1_linear_3073_26789)"/>
<path d="M129.786 58.4146C130.229 57.3055 130.769 56.2179 131.409 55.1629C132.614 53.175 134.086 51.4478 135.751 49.9992C133.792 49.4757 131.874 48.6688 130.052 47.5645C128.566 46.6632 127.225 45.6129 126.037 44.4444C125.34 46.2741 124.468 48.0668 123.417 49.8009C122.731 50.9317 121.988 52.0063 121.193 53.0232C122.675 53.5262 124.125 54.197 125.518 55.042C126.97 55.9223 128.283 56.9446 129.45 58.0804C129.563 58.1908 129.675 58.3022 129.786 58.4146Z" fill="url(#paint2_linear_3073_26789)"/>
<path d="M63.4355 61.9018C64.5846 60.0976 65.9281 58.3798 67.4666 56.7777C68.4027 55.803 69.3845 54.8987 70.4054 54.0649C68.0908 51.348 66.2645 48.2986 64.9603 45.0554C63.7423 47.0495 59.9442 51.1609 58.259 52.9157C57.5052 53.7006 59.0686 52.2222 58.259 52.9157C60.4726 55.6416 62.209 58.6814 63.4355 61.9018Z" fill="url(#paint3_linear_3073_26789)"/>
<path d="M102.74 72.6891C102.397 71.168 102.158 69.6039 102.032 68.0038C101.951 66.9702 101.918 65.944 101.933 64.9275C99.3032 65.4646 96.606 65.6814 93.9041 65.5623C93.8604 65.6704 93.8176 65.7786 93.7758 65.887C93.4157 66.82 93.1239 67.7677 92.8986 68.7235C92.9095 68.8449 92.9197 68.9666 92.9293 69.0884C93.0457 70.5671 93.0621 72.0306 92.9841 73.4722C96.1629 72.7304 99.4526 72.4601 102.74 72.6891Z" fill="url(#paint4_linear_3073_26789)"/>
<path d="M93.7758 65.887C93.8176 65.7786 93.8604 65.6704 93.9041 65.5623C93.417 65.5409 92.9297 65.5085 92.4427 65.4651C92.6466 66.5322 92.7995 67.6191 92.8986 68.7235C93.1239 67.7677 93.4157 66.82 93.7758 65.887Z" fill="url(#paint5_linear_3073_26789)"/>
<path d="M83.4297 133.446C98.9154 142.837 119.082 137.897 128.473 122.411C133.064 114.84 134.23 106.149 132.412 98.1465C131.739 95.1861 130.659 92.3197 129.192 89.639C127.754 87.0099 125.944 84.5592 123.785 82.3733C121.924 80.4899 119.804 78.803 117.437 77.3678C112.818 74.5664 107.782 73.0404 102.74 72.6891C99.4526 72.4601 96.1629 72.7304 92.9841 73.4722C92.762 73.524 92.5404 73.5782 92.3193 73.6346C86.648 75.0826 81.3592 78.0403 77.1085 82.3471C75.3422 84.1367 73.7551 86.1593 72.3943 88.4032C69.7024 92.8421 68.1881 97.6656 67.7622 102.51C67.7302 102.873 67.7044 103.237 67.6846 103.601C67.3424 109.907 68.8324 116.201 71.9581 121.682C74.6287 126.365 78.4935 130.453 83.4297 133.446Z" fill="url(#paint6_linear_3073_26789)"/>
<path d="M155.738 45.3705C148.731 43.4979 141.206 45.2523 135.751 49.9992C134.086 51.4478 132.614 53.175 131.409 55.1629C130.769 56.2179 130.229 57.3055 129.786 58.4146C129.663 58.7223 129.548 59.0316 129.44 59.3423C127.843 63.9371 127.867 68.8438 129.326 73.3037C130.356 76.4545 132.102 79.3824 134.499 81.8197C135.748 83.0894 137.173 84.226 138.766 85.1916C145.626 89.3521 153.865 89.2931 160.458 85.7556C163.786 83.9699 166.694 81.2978 168.794 77.8347C174.719 68.0643 172.087 55.4989 163.036 48.873C162.524 48.4978 161.991 48.1415 161.437 47.8059C159.616 46.7013 157.697 45.8941 155.738 45.3705Z" fill="url(#paint7_linear_3073_26789)"/>
<path d="M121.193 53.0232C121.988 52.0063 122.731 50.9317 123.417 49.8009C124.468 48.0668 125.34 46.2741 126.037 44.4444C127.42 40.8176 128.117 37.0454 128.171 33.2969C128.257 27.2793 126.684 21.3226 123.623 16.1263C120.963 11.6091 117.178 7.66658 112.381 4.75777C96.9174 -4.61983 76.7862 0.293545 67.3781 15.7273L67.338 15.7932C62.9489 23.0308 61.6904 31.2908 63.1759 38.9953C63.5751 41.0657 64.1724 43.0959 64.9603 45.0554C66.2645 48.2986 68.0908 51.348 70.4054 54.0649C72.6232 56.668 75.2891 58.9659 78.3734 60.8363C82.801 63.5213 87.6111 65.0347 92.4427 65.4651C92.9297 65.5085 93.417 65.5409 93.9041 65.5623C96.606 65.6814 99.3032 65.4646 101.933 64.9275C107.067 63.8787 111.942 61.6085 116.089 58.2321C117.951 56.7155 119.667 54.9757 121.193 53.0232Z" fill="url(#paint8_linear_3073_26789)"/>
<path d="M32.7194 153.828C43.0431 160.089 56.4874 156.795 62.7481 146.471C67.4285 138.753 66.7689 129.291 61.8242 122.39C60.1547 120.06 57.9968 118.023 55.3911 116.442C52.9404 114.956 50.3137 114.008 47.6491 113.565C43.9161 112.945 40.1085 113.314 36.6053 114.582C32.0755 116.22 28.0547 119.36 25.3624 123.799C23.2436 127.293 22.2191 131.145 22.1911 134.954C22.1365 142.4 25.8895 149.686 32.7194 153.828Z" fill="url(#paint9_linear_3073_26789)"/>
<g clip-path="url(#clip0_3073_26789)">
<path d="M90.6527 34.1034C90.6527 32.8155 89.6087 31.7715 88.3208 31.7715C87.033 31.7715 85.989 32.8155 85.989 34.1034V36.4353C85.989 37.7231 87.033 38.7672 88.3208 38.7672C89.6087 38.7672 90.6527 37.7231 90.6527 36.4353V34.1034Z" stroke="#FCFCFD" stroke-width="2.66667" stroke-linecap="round" stroke-linejoin="round"/>
<path d="M104.644 34.1034C104.644 32.8155 103.6 31.7715 102.312 31.7715C101.024 31.7715 99.9803 32.8155 99.9803 34.1034V36.4353C99.9803 37.7231 101.024 38.7672 102.312 38.7672C103.6 38.7672 104.644 37.7231 104.644 36.4353V34.1034Z" stroke="#FCFCFD" stroke-width="2.66667" stroke-linecap="round" stroke-linejoin="round"/>
<path d="M85.989 34.1032V30.6054C85.989 28.1316 86.9717 25.7591 88.7209 24.0098C90.4702 22.2606 92.8427 21.2778 95.3165 21.2778C97.7903 21.2778 100.163 22.2606 101.912 24.0098C103.661 25.7591 104.644 28.1316 104.644 30.6054V34.1032" stroke="#FCFCFD" stroke-width="2.66667" stroke-linecap="round" stroke-linejoin="round"/>
<path d="M102.312 38.7671C102.312 39.6948 101.575 40.5845 100.263 41.2404C98.9513 41.8964 97.1719 42.2649 95.3165 42.2649" stroke="#FCFCFD" stroke-width="2.66667" stroke-linecap="round" stroke-linejoin="round"/>
</g>
<g clip-path="url(#clip1_3073_26789)">
<path d="M95.0249 96.4819H92.693L89.1951 108.141" stroke="#FCFCFD" stroke-width="2.66667" stroke-linecap="round" stroke-linejoin="round"/>
<path d="M104.352 96.4819H106.684L110.182 108.141" stroke="#FCFCFD" stroke-width="2.66667" stroke-linecap="round" stroke-linejoin="round"/>
<path d="M97.3568 110.474H102.021" stroke="#FCFCFD" stroke-width="2.66667" stroke-linecap="round" stroke-linejoin="round"/>
<path d="M110.182 111.056C110.182 112.139 109.752 113.177 108.987 113.942C108.222 114.707 107.184 115.137 106.101 115.137C105.019 115.137 103.981 114.707 103.216 113.942C102.45 113.177 102.021 112.139 102.021 111.056V108.142H110.182V111.056Z" stroke="#FCFCFD" stroke-width="2.66667" stroke-linecap="round" stroke-linejoin="round"/>
<path d="M97.3568 111.056C97.3568 112.139 96.9268 113.177 96.1615 113.942C95.3962 114.707 94.3582 115.137 93.2759 115.137C92.1936 115.137 91.1557 114.707 90.3904 113.942C89.6251 113.177 89.1951 112.139 89.1951 111.056V108.142H97.3568V111.056Z" stroke="#FCFCFD" stroke-width="2.66667" stroke-linecap="round" stroke-linejoin="round"/>
<path d="M90.361 108.142L95.6078 113.388" stroke="#FCFCFD" stroke-width="2.66667" stroke-linecap="round" stroke-linejoin="round"/>
<path d="M103.186 108.142L108.433 113.388" stroke="#FCFCFD" stroke-width="2.66667" stroke-linecap="round" stroke-linejoin="round"/>
</g>
<g clip-path="url(#clip2_3073_26789)">
<path d="M39.6423 67.6245H23.319C22.0311 67.6245 20.9871 68.6685 20.9871 69.9564V80.4499C20.9871 81.7378 22.0311 82.7818 23.319 82.7818H39.6423C40.9301 82.7818 41.9741 81.7378 41.9741 80.4499V69.9564C41.9741 68.6685 40.9301 67.6245 39.6423 67.6245Z" stroke="#FCFCFD" stroke-width="2.66667" stroke-linecap="round" stroke-linejoin="round"/>
<path d="M26.8168 67.6247V65.2928C26.8168 64.6744 27.0625 64.0812 27.4998 63.6439C27.9371 63.2066 28.5303 62.9609 29.1487 62.9609H33.8125C34.431 62.9609 35.0241 63.2066 35.4614 63.6439C35.8987 64.0812 36.1444 64.6744 36.1444 65.2928V67.6247" stroke="#FCFCFD" stroke-width="2.66667" stroke-linecap="round" stroke-linejoin="round"/>
<path d="M31.4806 73.4541V73.4658" stroke="#FCFCFD" stroke-width="2.66667" stroke-linecap="round" stroke-linejoin="round"/>
<path d="M20.9871 74.6201C24.242 76.2602 27.8359 77.1146 31.4806 77.1146C35.1253 77.1146 38.7193 76.2602 41.9741 74.6201" stroke="#FCFCFD" stroke-width="2.66667" stroke-linecap="round" stroke-linejoin="round"/>
</g>
<g clip-path="url(#clip3_3073_26789)">
<path d="M147.783 59.4639H144.285C143.802 59.4639 143.411 59.8554 143.411 60.3383V63.8362C143.411 64.3191 143.802 64.7106 144.285 64.7106H147.783C148.266 64.7106 148.658 64.3191 148.658 63.8362V60.3383C148.658 59.8554 148.266 59.4639 147.783 59.4639Z" stroke="#FCFCFD" stroke-width="2" stroke-linecap="round" stroke-linejoin="round"/>
<path d="M147.783 68.208H144.285C143.802 68.208 143.411 68.5995 143.411 69.0825V72.5803C143.411 73.0633 143.802 73.4548 144.285 73.4548H147.783C148.266 73.4548 148.658 73.0633 148.658 72.5803V69.0825C148.658 68.5995 148.266 68.208 147.783 68.208Z" stroke="#FCFCFD" stroke-width="2" stroke-linecap="round" stroke-linejoin="round"/>
<path d="M156.528 68.208H153.03C152.547 68.208 152.156 68.5995 152.156 69.0825V72.5803C152.156 73.0633 152.547 73.4548 153.03 73.4548H156.528C157.011 73.4548 157.402 73.0633 157.402 72.5803V69.0825C157.402 68.5995 157.011 68.208 156.528 68.208Z" stroke="#FCFCFD" stroke-width="2" stroke-linecap="round" stroke-linejoin="round"/>
<path d="M152.156 62.0869H157.402" stroke="#FCFCFD" stroke-width="2" stroke-linecap="round" stroke-linejoin="round"/>
<path d="M154.779 59.4639V64.7106" stroke="#FCFCFD" stroke-width="2" stroke-linecap="round" stroke-linejoin="round"/>
</g>
<g clip-path="url(#clip4_3073_26789)">
<path d="M35.8528 127.671V143.412H51.5931" stroke="#FCFCFD" stroke-width="2" stroke-linecap="round" stroke-linejoin="round"/>
<path d="M41.0996 139.914C42.0655 139.914 42.8485 139.131 42.8485 138.165C42.8485 137.199 42.0655 136.416 41.0996 136.416C40.1337 136.416 39.3506 137.199 39.3506 138.165C39.3506 139.131 40.1337 139.914 41.0996 139.914Z" stroke="#FCFCFD" stroke-width="2" stroke-linecap="round" stroke-linejoin="round"/>
<path d="M44.5974 131.169C45.5633 131.169 46.3463 130.386 46.3463 129.42C46.3463 128.454 45.5633 127.671 44.5974 127.671C43.6315 127.671 42.8485 128.454 42.8485 129.42C42.8485 130.386 43.6315 131.169 44.5974 131.169Z" stroke="#FCFCFD" stroke-width="2" stroke-linecap="round" stroke-linejoin="round"/>
<path d="M48.9697 137.29C49.9356 137.29 50.7186 136.507 50.7186 135.541C50.7186 134.575 49.9356 133.792 48.9697 133.792C48.0038 133.792 47.2208 134.575 47.2208 135.541C47.2208 136.507 48.0038 137.29 48.9697 137.29Z" stroke="#FCFCFD" stroke-width="2" stroke-linecap="round" stroke-linejoin="round"/>
<path d="M51.5931 127.671L46.3463 128.983" stroke="#FCFCFD" stroke-width="2" stroke-linecap="round" stroke-linejoin="round"/>
<path d="M45.5707 130.863L47.9938 134.094" stroke="#FCFCFD" stroke-width="2" stroke-linecap="round" stroke-linejoin="round"/>
<path d="M47.2208 135.979L42.8485 137.727" stroke="#FCFCFD" stroke-width="2" stroke-linecap="round" stroke-linejoin="round"/>
</g>
<defs>
<linearGradient id="paint0_linear_3073_26789" x1="85.983" y1="0" x2="85.983" y2="157" gradientUnits="userSpaceOnUse">
<stop offset="0.2" stop-color="#0C111D"/>
<stop offset="0.4" stop-color="#192548"/>
<stop offset="0.6" stop-color="#213B78"/>
<stop offset="0.8" stop-color="#2651AC"/>
<stop offset="1" stop-color="#2575FF"/>
</linearGradient>
<linearGradient id="paint1_linear_3073_26789" x1="85.983" y1="0" x2="85.983" y2="157" gradientUnits="userSpaceOnUse">
<stop stop-color="#7491FF"/>
<stop offset="0.5" stop-color="#2575FF"/>
<stop offset="1" stop-color="#2769E3"/>
</linearGradient>
<linearGradient id="paint2_linear_3073_26789" x1="85.983" y1="0" x2="85.983" y2="157" gradientUnits="userSpaceOnUse">
<stop offset="0.2" stop-color="#0C111D"/>
<stop offset="0.4" stop-color="#192548"/>
<stop offset="0.6" stop-color="#213B78"/>
<stop offset="0.8" stop-color="#2651AC"/>
<stop offset="1" stop-color="#2575FF"/>
</linearGradient>
<linearGradient id="paint3_linear_3073_26789" x1="85.983" y1="0" x2="85.983" y2="157" gradientUnits="userSpaceOnUse">
<stop offset="0.2" stop-color="#0C111D"/>
<stop offset="0.4" stop-color="#192548"/>
<stop offset="0.6" stop-color="#213B78"/>
<stop offset="0.8" stop-color="#2651AC"/>
<stop offset="1" stop-color="#2575FF"/>
</linearGradient>
<linearGradient id="paint4_linear_3073_26789" x1="85.983" y1="0" x2="85.983" y2="157" gradientUnits="userSpaceOnUse">
<stop offset="0.2" stop-color="#0C111D"/>
<stop offset="0.4" stop-color="#192548"/>
<stop offset="0.6" stop-color="#213B78"/>
<stop offset="0.8" stop-color="#2651AC"/>
<stop offset="1" stop-color="#2575FF"/>
</linearGradient>
<linearGradient id="paint5_linear_3073_26789" x1="85.983" y1="0" x2="85.983" y2="157" gradientUnits="userSpaceOnUse">
<stop offset="0.2" stop-color="#0C111D"/>
<stop offset="0.4" stop-color="#192548"/>
<stop offset="0.6" stop-color="#213B78"/>
<stop offset="0.8" stop-color="#2651AC"/>
<stop offset="1" stop-color="#2575FF"/>
</linearGradient>
<linearGradient id="paint6_linear_3073_26789" x1="85.983" y1="0" x2="85.983" y2="157" gradientUnits="userSpaceOnUse">
<stop offset="0.2" stop-color="#0C111D"/>
<stop offset="0.4" stop-color="#192548"/>
<stop offset="0.6" stop-color="#213B78"/>
<stop offset="0.8" stop-color="#2651AC"/>
<stop offset="1" stop-color="#2575FF"/>
</linearGradient>
<linearGradient id="paint7_linear_3073_26789" x1="85.983" y1="0" x2="85.983" y2="157" gradientUnits="userSpaceOnUse">
<stop stop-color="#7491FF"/>
<stop offset="0.5" stop-color="#2575FF"/>
<stop offset="1" stop-color="#2769E3"/>
</linearGradient>
<linearGradient id="paint8_linear_3073_26789" x1="85.983" y1="0" x2="85.983" y2="157" gradientUnits="userSpaceOnUse">
<stop offset="0.2" stop-color="#0C111D"/>
<stop offset="0.4" stop-color="#192548"/>
<stop offset="0.6" stop-color="#213B78"/>
<stop offset="0.8" stop-color="#2651AC"/>
<stop offset="1" stop-color="#2575FF"/>
</linearGradient>
<linearGradient id="paint9_linear_3073_26789" x1="85.983" y1="0" x2="85.983" y2="157" gradientUnits="userSpaceOnUse">
<stop stop-color="#7491FF"/>
<stop offset="0.5" stop-color="#2575FF"/>
<stop offset="1" stop-color="#2769E3"/>
</linearGradient>
<clipPath id="clip0_3073_26789">
<rect width="27.9827" height="27.9827" fill="white" transform="translate(81.3252 16.6143)"/>
</clipPath>
<clipPath id="clip1_3073_26789">
<rect width="27.9827" height="27.9827" fill="white" transform="translate(85.6973 91.8184)"/>
</clipPath>
<clipPath id="clip2_3073_26789">
<rect width="27.9827" height="27.9827" fill="white" transform="translate(17.4893 59.4629)"/>
</clipPath>
<clipPath id="clip3_3073_26789">
<rect width="20.987" height="20.987" fill="white" transform="translate(139.913 55.9658)"/>
</clipPath>
<clipPath id="clip4_3073_26789">
<rect width="20.987" height="20.987" fill="white" transform="translate(33.2294 125.048)"/>
</clipPath>
</defs>
</svg>
