<svg preserveAspectRatio="none" width="100%" height="100%" overflow="visible" style="display: block;" viewBox="0 0 35 45" fill="none" xmlns="http://www.w3.org/2000/svg">
<path id="BTC" d="M34.9084 18.0911C35.6375 13.3631 31.9289 10.8208 26.8617 9.12452L28.5059 2.71818L24.493 1.74821L22.8906 7.98536C21.8363 7.72821 20.7541 7.4891 19.6743 7.24999L21.2882 0.97223L17.2754 0L15.6312 6.40408C14.758 6.21008 13.8988 6.0206 13.0674 5.81759L13.0721 5.79728L7.53577 4.45511L6.46752 8.61923C6.46752 8.61923 9.44699 9.28242 9.38429 9.32302C11.0099 9.71778 11.3025 10.7622 11.2537 11.5923L9.38197 18.8897C9.49344 18.9167 9.63742 18.9573 9.79998 19.0182L9.375 18.9167L6.75084 29.1398C6.55112 29.618 6.04719 30.3376 4.90928 30.0647C4.95108 30.1211 1.99251 29.3586 1.99251 29.3586L0 33.8205L5.22511 35.086C6.19581 35.3228 7.14794 35.571 8.08382 35.8033L6.4234 42.2818L10.434 43.2518L12.0781 36.8455C13.1742 37.1319 14.2378 37.3981 15.2782 37.6508L13.6387 44.03L17.6516 45L19.312 38.535C26.158 39.7937 31.3042 39.2862 33.4709 33.2723C35.2172 28.4315 33.3849 25.6366 29.7831 23.8162C32.4073 23.2297 34.3812 21.5537 34.9084 18.0911ZM25.7354 30.5835C24.4976 35.4266 16.1026 32.8077 13.3809 32.1512L15.5871 23.5681C18.3088 24.229 27.0335 25.5351 25.7354 30.5835ZM26.9778 18.0212C25.8469 22.4267 18.8615 20.1867 16.5973 19.6386L18.5944 11.8562C20.8586 12.4044 28.1575 13.4262 26.9778 18.0212Z" fill="var(--fill-0, #101828)"/>
</svg>
