<svg preserveAspectRatio="none" width="100%" height="100%" overflow="visible" style="display: block;" viewBox="0 0 55.9043 43.38" fill="none" xmlns="http://www.w3.org/2000/svg">
<g id="mastercard">
<path d="M10.1725 43.2841V40.405C10.1725 39.3011 9.50058 38.5815 8.34882 38.5815C7.77304 38.5815 7.14918 38.7734 6.71724 39.3973C6.38148 38.8694 5.90167 38.5815 5.18184 38.5815C4.70181 38.5815 4.22222 38.7253 3.83815 39.2532V38.6775H2.83044V43.2841H3.83815V40.7408C3.83815 39.9252 4.27009 39.5411 4.94205 39.5411C5.61357 39.5411 5.94976 39.9731 5.94976 40.7408V43.2841H6.95748V40.7408C6.95748 39.9252 7.43707 39.5411 8.06093 39.5411C8.73289 39.5411 9.06865 39.9731 9.06865 40.7408V43.2841H10.1725ZM25.0961 38.6775H23.4647V37.2859H22.457V38.6775H21.5453V39.589H22.4568V41.7006C22.4568 42.7564 22.8887 43.38 24.0405 43.38C24.4725 43.38 24.952 43.2362 25.2882 43.0443L25.0001 42.1804C24.7122 42.3723 24.3765 42.4204 24.1365 42.4204C23.6567 42.4204 23.4647 42.1325 23.4647 41.6525V39.589H25.0961V38.6775ZM33.6378 38.5813C33.0621 38.5813 32.6782 38.8694 32.4382 39.2532V38.6775H31.4305V43.2841H32.4382V40.6929C32.4382 39.9252 32.774 39.4932 33.3978 39.4932C33.5897 39.4932 33.8298 39.5413 34.0217 39.5892L34.3096 38.6296C34.1176 38.5815 33.8298 38.5813 33.6378 38.5813ZM20.7295 39.0613C20.2495 38.7253 19.5777 38.5815 18.8579 38.5815C17.7063 38.5815 16.9386 39.1573 16.9386 40.069C16.9386 40.8369 17.5144 41.2687 18.5221 41.4127L19.0019 41.4608C19.5298 41.5565 19.8177 41.7006 19.8177 41.9406C19.8177 42.2764 19.4339 42.5164 18.7619 42.5164C18.0902 42.5164 17.5623 42.2764 17.2263 42.0366L16.7465 42.8043C17.2744 43.1881 17.9942 43.38 18.7138 43.38C20.0575 43.38 20.8254 42.7564 20.8254 41.8925C20.8254 41.0767 20.2016 40.6448 19.2417 40.501L18.7619 40.4529C18.33 40.4048 17.9942 40.309 17.9942 40.0211C17.9942 39.6852 18.33 39.4932 18.8579 39.4932C19.4339 39.4932 20.0097 39.733 20.2975 39.8771L20.7295 39.0613ZM47.506 38.5815C46.93 38.5815 46.5462 38.8694 46.3062 39.2532V38.6775H45.2985V43.2841H46.3062V40.6929C46.3062 39.9252 46.6422 39.4932 47.2658 39.4932C47.4579 39.4932 47.698 39.5413 47.8899 39.5892L48.1778 38.6296C47.9858 38.5815 47.698 38.5815 47.506 38.5815ZM34.6455 40.9808C34.6455 42.3723 35.6052 43.38 37.0929 43.38C37.7647 43.38 38.2445 43.2362 38.7243 42.8524L38.2445 42.0366C37.8606 42.3245 37.4768 42.4683 37.0448 42.4683C36.229 42.4683 35.6533 41.8925 35.6533 40.9808C35.6533 40.1171 36.229 39.5411 37.0448 39.4932C37.4768 39.4932 37.8606 39.6371 38.2445 39.9252L38.7243 39.1094C38.2445 38.7253 37.7647 38.5815 37.0929 38.5815C35.6052 38.5815 34.6455 39.5892 34.6455 40.9808ZM43.955 38.6775H42.9473V39.2532C42.6113 38.8215 42.1315 38.5815 41.5076 38.5815C40.212 38.5815 39.2043 39.5892 39.2043 40.9808C39.2043 42.3723 40.212 43.38 41.5076 43.38C42.1794 43.38 42.6594 43.1402 42.9473 42.7083V43.2841H43.955V38.6775ZM40.2599 40.9808C40.2599 40.165 40.7878 39.4932 41.6515 39.4932C42.4672 39.4932 43.0432 40.1171 43.0432 40.9808C43.0432 41.7966 42.4672 42.4683 41.6515 42.4683C40.7878 42.4202 40.2599 41.7966 40.2599 40.9808ZM28.2154 38.5815C26.8717 38.5815 25.9119 39.5411 25.9119 40.9808C25.9119 42.4204 26.8715 43.38 28.2633 43.38C28.935 43.38 29.607 43.1881 30.1349 42.7564L29.6549 42.0366C29.271 42.3245 28.7912 42.5164 28.3114 42.5164C27.6875 42.5164 27.0637 42.2285 26.9196 41.4125H30.3268V41.0289C30.3749 39.5411 29.5112 38.5815 28.2154 38.5815ZM28.2154 39.4452C28.8391 39.4452 29.2712 39.8292 29.367 40.549H26.9677C27.0637 39.9252 27.4956 39.4452 28.2154 39.4452ZM53.2163 36.854H52.2086V39.2532C51.8726 38.8215 51.3928 38.5815 50.769 38.5815C49.4734 38.5815 48.4657 39.5892 48.4657 40.9808C48.4657 42.3723 49.4734 43.38 50.769 43.38C51.4409 43.38 51.9207 43.1402 52.2086 42.7083V43.2841H53.2163V36.854ZM49.5215 40.9808C49.5215 40.165 50.0491 39.4932 50.913 39.4932C51.7288 39.4932 52.3046 40.1171 52.3046 40.9808C52.3046 41.7966 51.7288 42.4683 50.913 42.4683C50.0491 42.4202 49.5215 41.7966 49.5215 40.9808ZM15.8348 38.6775H14.827V39.2532C14.4911 38.8215 14.0113 38.5815 13.3874 38.5815C12.0918 38.5815 11.0841 39.5892 11.0841 40.9808C11.0841 42.3723 12.0918 43.38 13.3874 43.38C14.0593 43.38 14.5392 43.1402 14.827 42.7083V43.2841H15.8348V38.6775ZM12.0918 40.9808C12.0918 40.165 12.6197 39.4932 13.4833 39.4932C14.2991 39.4932 14.8751 40.1171 14.8751 40.9808C14.8751 41.7966 14.2991 42.4683 13.4833 42.4683C12.6197 42.4202 12.0918 41.7966 12.0918 40.9808Z" fill="black"/>
<path d="M20.3943 3.69488H35.51V30.8553H20.3943V3.69488Z" fill="#FF5F00"/>
<path d="M21.3541 17.2752C21.3541 11.7568 23.9453 6.86207 27.9281 3.69488C25.0011 1.39156 21.3063 0 17.2754 0C7.72573 0 0 7.72573 0 17.2752C0 26.8244 7.72573 34.5504 17.2752 34.5504C21.306 34.5504 25.0009 33.1588 27.9281 30.8553C23.9453 27.7362 21.3541 22.7936 21.3541 17.2752Z" fill="#EB001B"/>
<path d="M55.9043 17.2752C55.9043 26.8244 48.1785 34.5504 38.6291 34.5504C34.5982 34.5504 30.9034 33.1588 27.9762 30.8553C32.007 27.6883 34.5504 22.7936 34.5504 17.2752C34.5504 11.7568 31.9589 6.86207 27.9762 3.69488C30.9031 1.39156 34.5982 0 38.6291 0C48.1785 0 55.9043 7.77382 55.9043 17.2752Z" fill="var(--fill-0, #F79E1B)"/>
</g>
</svg>
