<svg preserveAspectRatio="none" width="100%" height="100%" overflow="visible" style="display: block;" viewBox="0 0 84 35" fill="none" xmlns="http://www.w3.org/2000/svg">
<path id="Stripe" d="M84 18.0841C84 12.1028 81.1067 7.38318 75.5767 7.38318C70.0233 7.38318 66.6633 12.1028 66.6633 18.0374C66.6633 25.0701 70.63 28.6215 76.3233 28.6215C79.1 28.6215 81.2 27.9907 82.7867 27.1028V22.4299C81.2 23.2243 79.38 23.715 77.07 23.715C74.8067 23.715 72.8 22.9206 72.5433 20.1636H83.9533C83.9533 19.8598 84 18.6449 84 18.0841ZM72.4733 15.8645C72.4733 13.2243 74.0833 12.1262 75.5533 12.1262C76.9767 12.1262 78.4933 13.2243 78.4933 15.8645H72.4733ZM57.6567 7.38318C55.37 7.38318 53.9 8.45794 53.0833 9.20561L52.78 7.75701H47.6467V35L53.48 33.7617L53.5033 27.1495C54.3433 27.757 55.58 28.6215 57.6333 28.6215C61.81 28.6215 65.6133 25.257 65.6133 17.8505C65.59 11.0748 61.74 7.38318 57.6567 7.38318ZM56.2567 23.4813C54.88 23.4813 54.0633 22.9907 53.5033 22.3832L53.48 13.715C54.0867 13.0374 54.9267 12.5701 56.2567 12.5701C58.38 12.5701 59.85 14.9533 59.85 18.014C59.85 21.1449 58.4033 23.4813 56.2567 23.4813ZM39.62 6.00467L45.4767 4.74299V0L39.62 1.23832V6.00467ZM39.62 7.78037H45.4767V28.2243H39.62V7.78037ZM33.3433 9.50935L32.97 7.78037H27.93V28.2243H33.7633V14.3692C35.14 12.5701 37.4733 12.8972 38.1967 13.1542V7.78037C37.45 7.5 34.72 6.98598 33.3433 9.50935ZM21.6767 2.71028L15.9833 3.92523L15.96 22.6402C15.96 26.0981 18.55 28.6449 22.0033 28.6449C23.9167 28.6449 25.3167 28.2944 26.0867 27.8738V23.1308C25.34 23.4346 21.6533 24.5093 21.6533 21.0514V12.757H26.0867V7.78037H21.6533L21.6767 2.71028ZM5.90333 13.715C5.90333 12.8037 6.65 12.4533 7.88667 12.4533C9.66 12.4533 11.9 12.9907 13.6733 13.9486V8.45794C11.7367 7.68692 9.82333 7.38318 7.88667 7.38318C3.15 7.38318 0 9.85981 0 13.9953C0 20.4439 8.86667 19.4159 8.86667 22.1963C8.86667 23.271 7.93333 23.6215 6.62667 23.6215C4.69 23.6215 2.21667 22.8271 0.256667 21.7523V27.3131C2.42667 28.2477 4.62 28.6449 6.62667 28.6449C11.48 28.6449 14.8167 26.2383 14.8167 22.0561C14.7933 15.0935 5.90333 16.3318 5.90333 13.715Z" fill="var(--fill-0, #635BFF)"/>
</svg>
