<svg preserveAspectRatio="none" width="100%" height="100%" overflow="visible" style="display: block;" viewBox="0 0 35 33" fill="none" xmlns="http://www.w3.org/2000/svg">
<path id="USDT" d="M35 15.5957C35 13.3472 28.9949 11.4713 21.0147 11.0385L21.0141 7.45589H30.9783V0H3.73219V7.45589H13.6955V11.056C5.86073 11.5185 0 13.3749 0 15.5957C0 17.8169 5.86073 19.6734 13.6955 20.1351V33H21.0141V20.1527C28.9949 19.7208 35 17.8442 35 15.5957ZM17.4999 17.8107C8.93432 17.8107 1.99035 16.4601 1.99035 14.7929C1.99035 13.3813 6.96954 12.1962 13.6955 11.8665V12.7162H13.6963V16.198C14.9089 16.2673 16.1834 16.3036 17.4999 16.3036C18.7122 16.3036 19.8895 16.2722 21.0149 16.2148V11.8536C27.8867 12.1631 33.0098 13.3607 33.0098 14.7929C33.0097 16.4601 26.0655 17.8107 17.4999 17.8107Z" fill="var(--fill-0, #101828)"/>
</svg>
