<svg preserveAspectRatio="none" width="100%" height="100%" overflow="visible" style="display: block;" viewBox="0 0 108 35" fill="none" xmlns="http://www.w3.org/2000/svg">
<path id="VISA" d="M70.3443 0C62.6759 0 55.823 3.97548 55.823 11.3205C55.823 19.744 67.9769 20.3257 67.9769 24.5574C67.9769 26.3391 65.9353 27.9341 62.4486 27.9341C57.5001 27.9341 53.8017 25.7055 53.8017 25.7055L52.219 33.1175C52.219 33.1175 56.4797 35 62.1362 35C70.5203 35 77.1175 30.8294 77.1175 23.3586C77.1175 14.4579 64.9131 13.8934 64.9131 9.96571C64.9131 8.56983 66.5889 7.04051 70.0658 7.04051C73.9887 7.04051 77.1892 8.66135 77.1892 8.66135L78.7379 1.50263C78.7379 1.50263 75.2555 0 70.3443 0ZM0.18569 0.540281L0 1.62084C0 1.62084 3.22612 2.21138 6.13176 3.38952C9.87306 4.74022 10.1395 5.52674 10.7697 7.96913L17.6357 34.4429H26.8396L41.019 0.540281H31.8362L22.7251 23.5908L19.0072 4.0521C18.6662 1.816 16.9391 0.540281 14.8252 0.540281H0.18569ZM44.7116 0.540281L37.508 34.4429H46.2646L53.443 0.540281H44.7116ZM93.5504 0.540281C91.4389 0.540281 90.3201 1.6711 89.4991 3.64689L76.6701 34.4429H85.853L87.6296 29.3102H98.817L99.8973 34.4429H108L100.931 0.540281H93.5504ZM94.7447 9.69967L97.4667 22.4216H90.1744L94.7447 9.69967Z" fill="var(--fill-0, #1434CB)"/>
</svg>
