<svg preserveAspectRatio="none" width="100%" height="100%" overflow="visible" style="display: block;" viewBox="0 0 49.3325 35" fill="none" xmlns="http://www.w3.org/2000/svg">
<g id="&#208;&#174;Money">
<path d="M31.7676 0C22.03 0 14.205 7.875 14.205 17.5C14.205 27.2043 22.107 35 31.7653 35C41.4236 35 49.3325 27.125 49.3325 17.5C49.3325 7.875 41.4259 0 31.7676 0ZM31.7676 24.0228C28.1755 24.0228 25.2229 21.0793 25.2229 17.5C25.2229 13.9207 28.1755 10.9772 31.7676 10.9772C35.3597 10.9772 38.3135 13.9207 38.3135 17.5C38.2329 21.0793 35.3597 24.0228 31.7676 24.0228Z" fill="var(--fill-0, #8B3FFD)"/>
<path d="M14.205 5.08433V30.5387H7.98246L0 5.08433H14.205Z" fill="var(--fill-0, #8B3FFD)"/>
</g>
</svg>
