<svg preserveAspectRatio="none" width="100%" height="100%" overflow="visible" style="display: block;" viewBox="0 0 2093.66 1357" fill="none" xmlns="http://www.w3.org/2000/svg">
<path id="[]" d="M339.703 488.089C281.208 522.456 186.461 578.239 157.765 598.874C128.84 619.675 119.48 632.104 115.883 640.335C110.287 653.14 107.639 666.907 107.943 680.628C108.217 692.929 110.865 705.182 115.883 716.666L116.628 718.256C120.725 726.479 130.648 738.621 157.772 758.126C179.294 773.602 207.511 790.926 244.952 813.118L285.562 837.05L286.644 837.681L840.874 1163.31C928.876 1215.01 962.745 1234.17 997.513 1241.69L1003.62 1242.93C1034.22 1248.7 1065.66 1248.29 1096.14 1241.69C1130.91 1234.17 1164.78 1215.01 1252.78 1163.31L1360.81 1226.77C1279.1 1274.78 1173.97 1337.33 1118.55 1349.33C1071.26 1359.56 1022.39 1359.56 975.107 1349.33C919.683 1337.33 868.698 1306.64 786.991 1258.63L232.754 933.016L231.672 932.378C175.025 899.096 129.266 872.274 95.5636 848.039C62.0955 823.971 33.0118 797.397 17.3003 761.443C6.395 736.486 0.645308 709.844 0.0513108 683.12C-0.611013 653.321 5.13866 623.397 17.3003 595.565C33.0118 559.609 62.0944 533.029 95.5636 508.962C129.267 484.725 175.029 457.906 231.679 424.622L339.703 488.089ZM975.107 7.67401C1022.39 -2.558 1071.26 -2.558 1118.55 7.67401C1173.97 19.6664 1224.96 50.3629 1306.67 98.3672L1861.22 424.178L1861.26 424.199L1861.99 424.622C1918.63 457.905 1964.39 484.725 1998.09 508.962C2031.56 533.029 2060.65 559.609 2076.36 595.565C2088.52 623.397 2094.27 653.32 2093.61 683.12C2093.01 709.844 2087.26 736.486 2076.36 761.443C2060.65 797.397 2031.56 823.972 1998.09 848.039C1964.39 872.275 1918.63 899.095 1861.98 932.378L1753.95 868.911C1812.45 834.545 1907.2 778.761 1935.89 758.126C1964.82 737.324 1974.18 724.896 1977.77 716.666C1982.79 705.181 1985.44 692.928 1985.71 680.628C1986 667.764 1983.69 654.863 1978.79 642.749L1977.77 640.335C1974.18 632.104 1964.82 619.675 1935.89 598.874C1907.2 578.239 1866.59 554.323 1808.1 519.957L1252.78 193.695C1167.53 143.609 1133.08 124.059 1099.4 116.046L1096.14 115.308C1063.63 108.273 1030.03 108.273 997.513 115.308C962.745 122.831 928.876 141.992 840.874 193.695L732.85 130.228C814.557 82.2235 919.683 19.6664 975.107 7.67401Z" fill="url(#paint0_linear_0_6)"/>
<defs>
<linearGradient id="paint0_linear_0_6" x1="1046.83" y1="0" x2="1046.83" y2="1357" gradientUnits="userSpaceOnUse">
<stop stop-color="#7491FF"/>
<stop offset="0.5" stop-color="#2575FF"/>
<stop offset="1" stop-color="#2769E3"/>
</linearGradient>
</defs>
</svg>
