<svg viewBox="7 0 277 190" fill="none" xmlns="http://www.w3.org/2000/svg">
  <path d="M116.96 10.9434L48.9095 50.1717C34.7992 58.3058 27.744 62.3728 25.3779 67.6856C24.2898 70.1288 23.7754 72.7551 23.8347 75.3715C23.8878 77.7176 24.4022 80.0557 25.3779 82.2465C25.4709 82.4553 25.5711 82.6621 25.6787 82.8674C28.3094 87.8852 35.3537 91.946 48.9096 99.7603L49.042 99.8367L116.96 138.988C127.358 144.983 132.558 147.98 138.084 149.153C142.974 150.191 148.027 150.191 152.916 149.153C158.443 147.98 163.642 144.983 174.04 138.989L241.628 100.027L242.091 99.7604C255.646 91.9461 262.691 87.8853 265.322 82.8676C265.429 82.6622 265.529 82.4553 265.622 82.2465C266.598 80.0557 267.113 77.7176 267.166 75.3715C267.225 72.7551 266.711 70.1288 265.622 67.6856C263.256 62.3728 256.201 58.3057 242.091 50.1717L174.041 10.9434C163.642 4.94906 158.443 1.95181 152.916 0.778578C148.027 -0.259526 142.974 -0.259526 138.084 0.778578C132.558 1.95182 127.358 4.949 116.96 10.9434Z" fill="url(#g0)"/>
  <path d="M255.054 133.113C271.059 123.89 279.061 119.279 281.744 113.255C282.851 110.771 283.435 108.12 283.495 105.46C283.562 102.493 282.979 99.5154 281.744 96.7453L265.622 67.6856C266.711 70.1288 267.225 72.7551 267.166 75.3715C267.113 77.7176 266.598 80.0557 265.622 82.2465C265.529 82.4553 265.429 82.6622 265.322 82.8676C262.691 87.8853 255.646 91.9461 242.091 99.7604L241.628 100.027L174.04 138.989C163.642 144.983 158.443 147.98 152.916 149.153C148.027 150.191 142.974 150.191 138.084 149.153C132.558 147.98 127.358 144.983 116.96 138.988L49.042 99.8367L48.9096 99.7603C35.3537 91.946 28.3094 87.8852 25.6787 82.8674C25.5711 82.6621 25.4709 82.4553 25.3779 82.2465C24.4022 80.0557 23.8878 77.7176 23.8347 75.3715C23.7754 72.7551 24.2898 70.1288 25.3779 67.6856L9.25554 96.7453C8.02143 99.5154 7.43799 102.493 7.50521 105.46C7.56549 108.12 8.14894 110.771 9.25555 113.255C11.9392 119.279 19.9413 123.89 35.9456 133.113L36.0958 133.2L113.129 177.592C124.923 184.389 130.82 187.787 137.088 189.117C142.634 190.294 148.366 190.294 153.912 189.117C160.179 187.787 166.077 184.389 177.871 177.592L254.53 133.415L255.054 133.113Z" fill="url(#g1)"/>
  <path d="M155.974 46.2031L193.771 68.0092L188.255 71.1963L150.457 49.3903L155.974 46.2031Z" fill="#FCFCFD"/>
  <path d="M168.316 82.7164L139.968 66.3618L145.3 63.2813L149.803 65.8793L150.098 65.7087C149.089 64.5301 148.8 63.3121 149.23 62.0549C149.66 60.7835 150.705 59.6681 152.366 58.7087C152.71 58.5097 153.128 58.2823 153.62 58.0265C154.124 57.7636 154.53 57.5646 154.838 57.4295L160.116 60.4747C159.833 60.5671 159.372 60.7555 158.732 61.0398C158.08 61.317 157.472 61.619 156.906 61.9459C155.602 62.6992 154.717 63.5304 154.249 64.4397C153.782 65.3347 153.74 66.2331 154.121 67.135C154.491 68.0298 155.29 68.8321 156.521 69.5419L173.832 79.5293L168.316 82.7164Z" fill="#FCFCFD"/>
  <path d="M133.866 69.8874L138.295 72.4428L122.817 81.386L118.388 78.8306L133.866 69.8874ZM115.747 72.514L121.263 69.3268L148.079 84.7976C149.15 85.4152 150.115 85.7877 150.976 85.9153C151.825 86.0358 152.6 86.0071 153.301 85.8293C154.003 85.6374 154.654 85.3673 155.257 85.0191C155.7 84.7632 156.057 84.5216 156.327 84.2943C156.598 84.0669 156.807 83.8893 156.954 83.7614L162.509 85.8157C162.312 86.0715 161.98 86.4054 161.513 86.8175C161.058 87.2367 160.394 87.7056 159.521 88.2244C158.094 89.0771 156.483 89.7097 154.687 90.1222C152.891 90.5347 151.039 90.6383 149.133 90.433C147.226 90.2276 145.417 89.6316 143.707 88.6449L115.747 72.514Z" fill="#FCFCFD"/>
  <path d="M117.102 82.8553L111.346 86.181C109.894 85.5991 108.399 85.2125 106.861 85.0213C105.324 84.83 103.792 84.7985 102.267 84.9268C100.741 85.0552 99.2715 85.3362 97.857 85.7699C96.4548 86.1965 95.151 86.758 93.9457 87.4544C91.7687 88.7122 90.3668 90.1544 89.74 91.781C89.1254 93.4005 89.3781 95.1085 90.4981 96.905C91.6304 98.6945 93.7223 100.469 96.7736 102.23C99.8496 104.004 102.938 105.218 106.038 105.87C109.15 106.516 112.109 106.653 114.913 106.283C117.718 105.913 120.197 105.106 122.349 103.862C123.542 103.173 124.514 102.427 125.264 101.624C126.014 100.807 126.506 99.9617 126.739 99.088C126.973 98.2144 126.929 97.3373 126.609 96.4567C126.289 95.5619 125.643 94.6992 124.671 93.8685L130.445 90.5535C131.996 91.803 133.109 93.1343 133.786 94.5474C134.463 95.9464 134.679 97.3703 134.434 98.8192C134.188 100.254 133.493 101.657 132.35 103.028C131.206 104.399 129.595 105.685 127.517 106.886C124.245 108.776 120.555 110.013 116.446 110.597C112.326 111.174 108.075 111.051 103.696 110.228C99.3285 109.399 95.1332 107.823 91.1098 105.502C87.0742 103.174 84.3486 100.749 82.9331 98.2285C81.5054 95.7005 81.2954 93.2503 82.3034 90.8778C83.2991 88.4983 85.4265 86.3669 88.6858 84.4838C90.6906 83.3254 92.8492 82.4121 95.1617 81.7438C97.4742 81.0612 99.879 80.6378 102.376 80.4737C104.861 80.3024 107.352 80.4117 109.849 80.8015C112.334 81.1843 114.752 81.8689 117.102 82.8553Z" fill="#FCFCFD"/>
  <defs>
    <linearGradient id="g0" x1="145.5" y1="0" x2="145.5" y2="190" gradientUnits="userSpaceOnUse">
      <stop stop-color="#7491FF"/>
      <stop offset="0.5" stop-color="#2575FF"/>
      <stop offset="1" stop-color="#2769E3"/>
    </linearGradient>
    <linearGradient id="g1" x1="145.5" y1="0" x2="145.5" y2="190" gradientUnits="userSpaceOnUse">
      <stop offset="0.2" stop-color="#0C111D"/>
      <stop offset="0.4" stop-color="#192548"/>
      <stop offset="0.6" stop-color="#213B78"/>
      <stop offset="0.8" stop-color="#2651AC"/>
      <stop offset="1" stop-color="#2575FF"/>
    </linearGradient>
  </defs>
</svg>
